<svg width="24" height="24" viewBox="0 0 24 24" fill="none" xmlns="http://www.w3.org/2000/svg">
<path d="M21.2806 18.424C20.9328 19.2275 20.5211 19.9672 20.0441 20.6473C19.3938 21.5743 18.8614 22.216 18.4511 22.5724C17.8151 23.1573 17.1336 23.4569 16.4039 23.4739C15.88 23.4739 15.2483 23.3248 14.5129 23.0224C13.775 22.7214 13.097 22.5724 12.477 22.5724C11.8268 22.5724 11.1294 22.7214 10.3835 23.0224C9.63644 23.3248 9.03463 23.4824 8.5745 23.498C7.87472 23.5278 7.17722 23.2198 6.48099 22.5724C6.03662 22.1848 5.48081 21.5204 4.81496 20.5791C4.10057 19.574 3.51323 18.4084 3.0531 17.0795C2.56032 15.6442 2.31329 14.2543 2.31329 12.9087C2.31329 11.3673 2.64636 10.0379 3.31348 8.92386C3.83778 8.02902 4.53528 7.32314 5.40826 6.80495C6.28124 6.28675 7.2245 6.02269 8.2403 6.00579C8.79611 6.00579 9.52499 6.17772 10.4308 6.51561C11.334 6.85464 11.9139 7.02656 12.1682 7.02656C12.3583 7.02656 13.0026 6.82553 14.0948 6.42475C15.1276 6.05307 15.9993 5.89917 16.7134 5.95979C18.6485 6.11596 20.1023 6.87877 21.0691 8.25305C19.3385 9.30165 18.4824 10.7703 18.4994 12.6544C18.515 14.122 19.0474 15.3432 20.0937 16.3129C20.5679 16.7629 21.0975 17.1108 21.6867 17.3578C21.5589 17.7283 21.424 18.0833 21.2806 18.424ZM16.8426 0.960146C16.8426 2.11041 16.4224 3.1844 15.5847 4.17848C14.5739 5.36025 13.3513 6.04313 12.0254 5.93537C12.0085 5.79738 11.9987 5.65214 11.9987 5.49952C11.9987 4.39527 12.4794 3.21351 13.3331 2.24725C13.7593 1.75802 14.3013 1.35123 14.9586 1.02673C15.6146 0.707068 16.235 0.530288 16.8185 0.500015C16.8355 0.653787 16.8426 0.807569 16.8426 0.960131V0.960146Z" fill="black"/>
</svg>
